<svg width="32" height="32" viewBox="0 0 32 32" fill="none" xmlns="http://www.w3.org/2000/svg">
  <defs>
    <linearGradient id="bg" x1="4" y1="3" x2="29" y2="31" gradientUnits="userSpaceOnUse">
      <stop stop-color="#0B1220"/>
      <stop offset="1" stop-color="#111827"/>
    </linearGradient>
    <linearGradient id="accent" x1="8" y1="7" x2="25" y2="25" gradientUnits="userSpaceOnUse">
      <stop stop-color="#22D3EE"/>
      <stop offset="1" stop-color="#A78BFA"/>
    </linearGradient>
  </defs>

  <rect width="32" height="32" rx="9" fill="url(#bg)"/>
  <rect x="1" y="1" width="30" height="30" rx="8" stroke="rgba(255,255,255,0.10)"/>

  <path
    d="M8 20.2C10.6 17.8 13.5 16.7 16 16.7C18.5 16.7 21.4 17.8 24 20.2"
    stroke="url(#accent)"
    stroke-width="2.2"
    stroke-linecap="round"
  />

  <path
    d="M10.6 9.6H17.1C21.6 9.6 24.9 12.6 24.9 16.8C24.9 21 21.6 24 17.1 24H10.6V9.6Z
       M14 12.8V20.8H17C19.9 20.8 21.6 19.2 21.6 16.8C21.6 14.4 19.9 12.8 17 12.8H14Z"
    fill="rgba(255,255,255,0.94)"
  />
</svg>
