<svg width="48" height="48" viewBox="0 0 48 48" fill="none" xmlns="http://www.w3.org/2000/svg">
  <defs>
    <linearGradient id="bg" x1="6" y1="4" x2="44" y2="46" gradientUnits="userSpaceOnUse">
      <stop stop-color="#0B1220"/>
      <stop offset="1" stop-color="#111827"/>
    </linearGradient>
    <linearGradient id="accent" x1="12" y1="10" x2="38" y2="38" gradientUnits="userSpaceOnUse">
      <stop stop-color="#22D3EE"/>
      <stop offset="1" stop-color="#A78BFA"/>
    </linearGradient>
    <filter id="softGlow" x="-30%" y="-30%" width="160%" height="160%" color-interpolation-filters="sRGB">
      <feGaussianBlur stdDeviation="1.2" result="blur"/>
      <feColorMatrix in="blur" type="matrix" values="
        1 0 0 0 0
        0 1 0 0 0
        0 0 1 0 0
        0 0 0 0.35 0" result="glow"/>
      <feMerge>
        <feMergeNode in="glow"/>
        <feMergeNode in="SourceGraphic"/>
      </feMerge>
    </filter>
  </defs>

  <rect width="48" height="48" rx="12" fill="url(#bg)"/>
  <rect x="1" y="1" width="46" height="46" rx="11" stroke="rgba(255,255,255,0.08)"/>

  <!-- "Daybreak" horizon -->
  <path
    d="M12 30.5C16.2 26.6 20.6 24.7 24 24.7C27.4 24.7 31.8 26.6 36 30.5"
    stroke="url(#accent)"
    stroke-width="3.2"
    stroke-linecap="round"
    filter="url(#softGlow)"
  />

  <!-- Custom monogram D -->
  <path
    d="M16.2 14.2H25.1C31.3 14.2 35.8 18.3 35.8 24C35.8 29.7 31.3 33.8 25.1 33.8H16.2V14.2Z
       M21 18.6V29.4H25C28.9 29.4 31.2 27.2 31.2 24C31.2 20.8 28.9 18.6 25 18.6H21Z"
    fill="rgba(255,255,255,0.94)"
  />
</svg>
